<svg width="1200" height="900" viewBox="0 0 1200 900" fill="none" xmlns="http://www.w3.org/2000/svg">
  <rect width="1200" height="900" fill="#0A0A0A"/>
  <rect width="1200" height="44" fill="#1A1A1A"/>
  <rect x="0" y="44" width="1200" height="1" fill="#2A2A2A"/>
  <circle cx="20" cy="22" r="5" fill="#FF5F56"/>
  <circle cx="38" cy="22" r="5" fill="#FFBD2E"/>
  <circle cx="56" cy="22" r="5" fill="#27C93F"/>
  <rect x="350" y="14" width="500" height="16" rx="8" fill="#2A2A2A"/>
  <!-- Airbnb-style hero -->
  <rect x="0" y="45" width="1200" height="72" fill="#FFF"/>
  <rect x="60" y="68" width="80" height="14" rx="4" fill="#FF385C"/>
  <rect x="750" y="68" width="60" height="10" rx="4" fill="#555"/>
  <rect x="825" y="68" width="60" height="10" rx="4" fill="#555"/>
  <rect x="900" y="68" width="60" height="10" rx="4" fill="#555"/>
  <rect x="1000" y="63" width="130" height="28" rx="14" fill="#FF385C"/>
  <!-- Hero search -->
  <rect x="0" y="117" width="1200" height="420" fill="url(#airbnbGrad)"/>
  <rect x="100" y="200" width="400" height="18" rx="4" fill="#FFF" opacity="0.9"/>
  <rect x="100" y="230" width="300" height="14" rx="4" fill="#FFF" opacity="0.6"/>
  <rect x="100" y="280" width="600" height="56" rx="28" fill="#FFF"/>
  <rect x="120" y="296" width="200" height="12" rx="4" fill="#DDD"/>
  <rect x="340" y="296" width="1" height="24" fill="#EEE"/>
  <rect x="360" y="296" width="150" height="12" rx="4" fill="#DDD"/>
  <rect x="530" y="296" width="1" height="24" fill="#EEE"/>
  <rect x="550" y="296" width="130" height="12" rx="4" fill="#DDD"/>
  <rect x="670" y="288" width="48" height="40" rx="20" fill="#FF385C"/>
  <!-- Categories -->
  <rect x="60" y="380" width="60" height="60" rx="30" fill="#FFF" opacity="0.1"/>
  <rect x="135" y="380" width="60" height="60" rx="30" fill="#FFF" opacity="0.1"/>
  <rect x="210" y="380" width="60" height="60" rx="30" fill="#FFF" opacity="0.1"/>
  <rect x="285" y="380" width="60" height="60" rx="30" fill="#FFF" opacity="0.1"/>
  <rect x="360" y="380" width="60" height="60" rx="30" fill="#FFF" opacity="0.1"/>
  <rect x="435" y="380" width="60" height="60" rx="30" fill="#FFF" opacity="0.1"/>
  <!-- Listings grid -->
  <rect x="0" y="537" width="1200" height="363" fill="#FFF"/>
  <rect x="60" y="560" width="340" height="310" rx="12" fill="#F7F7F7"/>
  <rect x="80" y="580" width="300" height="200" rx="8" fill="#EEE"/>
  <rect x="80" y="795" width="200" height="10" rx="4" fill="#333"/>
  <rect x="80" y="812" width="160" height="8" rx="4" fill="#888"/>
  <rect x="80" y="828" width="100" height="8" rx="4" fill="#FF385C" opacity="0.6"/>
  <rect x="415" y="560" width="340" height="310" rx="12" fill="#F7F7F7"/>
  <rect x="435" y="580" width="300" height="200" rx="8" fill="#EEE"/>
  <rect x="435" y="795" width="200" height="10" rx="4" fill="#333"/>
  <rect x="435" y="812" width="160" height="8" rx="4" fill="#888"/>
  <rect x="435" y="828" width="100" height="8" rx="4" fill="#FF385C" opacity="0.6"/>
  <rect x="770" y="560" width="340" height="310" rx="12" fill="#F7F7F7"/>
  <rect x="790" y="580" width="300" height="200" rx="8" fill="#EEE"/>
  <rect x="790" y="795" width="200" height="10" rx="4" fill="#333"/>
  <rect x="790" y="812" width="160" height="8" rx="4" fill="#888"/>
  <rect x="790" y="828" width="100" height="8" rx="4" fill="#FF385C" opacity="0.6"/>
  <defs><linearGradient id="airbnbGrad" x1="0" y1="0" x2="0" y2="1"><stop offset="0%" stop-color="#FF385C"/><stop offset="100%" stop-color="#FF385C" stop-opacity="0.6"/></linearGradient></defs>
</svg>
