<svg width="1200" height="900" viewBox="0 0 1200 900" fill="none" xmlns="http://www.w3.org/2000/svg">
  <rect width="1200" height="900" fill="#0A0A0A"/>
  <rect width="1200" height="44" fill="#1A1A1A"/>
  <rect x="0" y="44" width="1200" height="1" fill="#2A2A2A"/>
  <circle cx="20" cy="22" r="5" fill="#FF5F56"/>
  <circle cx="38" cy="22" r="5" fill="#FFBD2E"/>
  <circle cx="56" cy="22" r="5" fill="#27C93F"/>
  <rect x="350" y="14" width="500" height="16" rx="8" fill="#2A2A2A"/>
  <!-- Framer style - dark minimal -->
  <rect x="0" y="45" width="1200" height="64" fill="#0A0A0A"/>
  <rect x="60" y="68" width="70" height="14" rx="4" fill="#FFF"/>
  <rect x="800" y="68" width="60" height="10" rx="4" fill="#555"/>
  <rect x="875" y="68" width="60" height="10" rx="4" fill="#555"/>
  <rect x="950" y="68" width="60" height="10" rx="4" fill="#555"/>
  <rect x="1050" y="63" width="90" height="28" rx="14" fill="#FFF"/>
  <!-- Hero -->
  <rect x="0" y="109" width="1200" height="440" fill="url(#framerGrad)"/>
  <rect x="100" y="200" width="500" height="60" rx="6" fill="#FFF" opacity="0.03"/>
  <rect x="110" y="212" width="400" height="14" rx="4" fill="#FFF" opacity="0.12"/>
  <rect x="110" y="236" width="320" height="14" rx="4" fill="#FFF" opacity="0.06"/>
  <rect x="100" y="280" width="360" height="14" rx="4" fill="#555"/>
  <rect x="100" y="302" width="300" height="14" rx="4" fill="#444"/>
  <rect x="100" y="340" width="180" height="52" rx="26" fill="#FFF"/>
  <rect x="300" y="340" width="150" height="52" rx="26" fill="#FFF" opacity="0.05" stroke="#444" stroke-width="1"/>
  <!-- Template grid -->
  <rect x="600" y="145" width="530" height="380" rx="12" fill="#111" stroke="#2A2A2A" stroke-width="1"/>
  <rect x="620" y="165" width="490" height="340" rx="8" fill="#151515"/>
  <rect x="640" y="185" width="450" height="1" fill="#2A2A2A"/>
  <rect x="640" y="205" width="140" height="120" rx="6" fill="#1A1A1A"/>
  <rect x="655" y="215" width="110" height="60" rx="4" fill="#222"/>
  <rect x="655" y="285" width="110" height="10" rx="4" fill="#333"/>
  <rect x="655" y="300" width="90" height="8" rx="4" fill="#2A2A2A"/>
  <rect x="795" y="205" width="140" height="120" rx="6" fill="#1A1A1A"/>
  <rect x="810" y="215" width="110" height="60" rx="4" fill="#222"/>
  <rect x="810" y="285" width="110" height="10" rx="4" fill="#333"/>
  <rect x="810" y="300" width="90" height="8" rx="4" fill="#2A2A2A"/>
  <rect x="950" y="205" width="140" height="120" rx="6" fill="#1A1A1A"/>
  <rect x="965" y="215" width="110" height="60" rx="4" fill="#222"/>
  <rect x="965" y="285" width="110" height="10" rx="4" fill="#333"/>
  <rect x="965" y="300" width="90" height="8" rx="4" fill="#2A2A2A"/>
  <rect x="640" y="340" width="450" height="1" fill="#2A2A2A"/>
  <rect x="640" y="360" width="210" height="14" rx="4" fill="#FFF" opacity="0.05"/>
  <rect x="640" y="385" width="450" height="90" rx="6" fill="#1A1A1A"/>
  <rect x="660" y="400" width="120" height="55" rx="4" fill="#222"/>
  <rect x="795" y="400" width="120" height="55" rx="4" fill="#222"/>
  <rect x="930" y="400" width="140" height="55" rx="4" fill="#222"/>
  <rect x="660" y="462" width="120" height="8" rx="4" fill="#333"/>
  <rect x="795" y="462" width="120" height="8" rx="4" fill="#333"/>
  <rect x="930" y="462" width="140" height="8" rx="4" fill="#333"/>
  <!-- Template cards -->
  <rect x="0" y="549" width="1200" height="351" fill="#0A0A0A"/>
  <rect x="480" y="580" width="240" height="16" rx="4" fill="#FFF" opacity="0.04"/>
  <rect x="60" y="620" width="250" height="250" rx="10" fill="#111" stroke="#2A2A2A" stroke-width="1"/>
  <rect x="80" y="640" width="210" height="160" rx="6" fill="#151515"/>
  <rect x="80" y="815" width="210" height="10" rx="4" fill="#444"/>
  <rect x="80" y="832" width="160" height="8" rx="4" fill="#333"/>
  <rect x="330" y="620" width="250" height="250" rx="10" fill="#111" stroke="#2A2A2A" stroke-width="1"/>
  <rect x="350" y="640" width="210" height="160" rx="6" fill="#151515"/>
  <rect x="350" y="815" width="210" height="10" rx="4" fill="#444"/>
  <rect x="350" y="832" width="160" height="8" rx="4" fill="#333"/>
  <rect x="600" y="620" width="250" height="250" rx="10" fill="#111" stroke="#2A2A2A" stroke-width="1"/>
  <rect x="620" y="640" width="210" height="160" rx="6" fill="#151515"/>
  <rect x="620" y="815" width="210" height="10" rx="4" fill="#444"/>
  <rect x="620" y="832" width="160" height="8" rx="4" fill="#333"/>
  <rect x="870" y="620" width="250" height="250" rx="10" fill="#111" stroke="#2A2A2A" stroke-width="1"/>
  <rect x="890" y="640" width="210" height="160" rx="6" fill="#151515"/>
  <rect x="890" y="815" width="210" height="10" rx="4" fill="#444"/>
  <rect x="890" y="832" width="160" height="8" rx="4" fill="#333"/>
  <defs><linearGradient id="framerGrad" x1="0" y1="0" x2="1" y2="1"><stop offset="0%" stop-color="#FFF" stop-opacity="0.03"/><stop offset="100%" stop-color="#0A0A0A" stop-opacity="0"/></linearGradient></defs>
</svg>
