<svg width="1200" height="900" viewBox="0 0 1200 900" fill="none" xmlns="http://www.w3.org/2000/svg">
  <rect width="1200" height="900" fill="#0A0A0A"/>
  <rect width="1200" height="44" fill="#1A1A1A"/>
  <rect x="0" y="44" width="1200" height="1" fill="#2A2A2A"/>
  <circle cx="20" cy="22" r="5" fill="#FF5F56"/>
  <circle cx="38" cy="22" r="5" fill="#FFBD2E"/>
  <circle cx="56" cy="22" r="5" fill="#27C93F"/>
  <rect x="350" y="14" width="500" height="16" rx="8" fill="#2A2A2A"/>
  <!-- Mayo Clinic style - clean blue/white -->
  <rect x="0" y="45" width="1200" height="72" fill="#FFF"/>
  <rect x="60" y="68" width="100" height="14" rx="4" fill="#0057B8"/>
  <rect x="750" y="68" width="60" height="10" rx="4" fill="#555"/>
  <rect x="825" y="68" width="60" height="10" rx="4" fill="#555"/>
  <rect x="900" y="68" width="60" height="10" rx="4" fill="#555"/>
  <rect x="1000" y="63" width="130" height="28" rx="14" fill="#0057B8"/>
  <!-- Hero -->
  <rect x="0" y="117" width="1200" height="380" fill="url(#mayoGrad)"/>
  <rect x="100" y="180" width="400" height="16" rx="4" fill="#0057B8" opacity="0.7"/>
  <rect x="100" y="210" width="320" height="14" rx="4" fill="#0057B8" opacity="0.3"/>
  <rect x="100" y="240" width="280" height="14" rx="4" fill="#0057B8" opacity="0.2"/>
  <rect x="100" y="290" width="200" height="48" rx="24" fill="#0057B8"/>
  <rect x="320" y="290" width="150" height="48" rx="24" fill="#FFF" stroke="#0057B8" stroke-width="1"/>
  <!-- Stats -->
  <rect x="100" y="380" width="120" height="50" rx="8" fill="#FFF" stroke="#DDD" stroke-width="1"/>
  <rect x="115" y="390" width="30" height="8" rx="4" fill="#0057B8" opacity="0.4"/>
  <rect x="115" y="405" width="90" height="6" rx="4" fill="#999"/>
  <rect x="235" y="380" width="120" height="50" rx="8" fill="#FFF" stroke="#DDD" stroke-width="1"/>
  <rect x="250" y="390" width="30" height="8" rx="4" fill="#0057B8" opacity="0.4"/>
  <rect x="250" y="405" width="90" height="6" rx="4" fill="#999"/>
  <rect x="370" y="380" width="120" height="50" rx="8" fill="#FFF" stroke="#DDD" stroke-width="1"/>
  <rect x="385" y="390" width="30" height="8" rx="4" fill="#0057B8" opacity="0.4"/>
  <rect x="385" y="405" width="90" height="6" rx="4" fill="#999"/>
  <!-- Services Section -->
  <rect x="0" y="497" width="1200" height="403" fill="#F8FAFB"/>
  <rect x="480" y="530" width="240" height="16" rx="4" fill="#0057B8" opacity="0.08"/>
  <rect x="60" y="570" width="340" height="290" rx="12" fill="#FFF" stroke="#EEE" stroke-width="1"/>
  <rect x="80" y="590" width="300" height="160" rx="8" fill="#F0F7FF"/>
  <rect x="80" y="765" width="200" height="12" rx="4" fill="#333"/>
  <rect x="80" y="785" width="160" height="8" rx="4" fill="#888"/>
  <rect x="80" y="810" width="120" height="28" rx="14" fill="#0057B8"/>
  <rect x="415" y="570" width="340" height="290" rx="12" fill="#FFF" stroke="#EEE" stroke-width="1"/>
  <rect x="435" y="590" width="300" height="160" rx="8" fill="#F0F7FF"/>
  <rect x="435" y="765" width="200" height="12" rx="4" fill="#333"/>
  <rect x="435" y="785" width="160" height="8" rx="4" fill="#888"/>
  <rect x="435" y="810" width="120" height="28" rx="14" fill="#0057B8"/>
  <rect x="770" y="570" width="340" height="290" rx="12" fill="#FFF" stroke="#EEE" stroke-width="1"/>
  <rect x="790" y="590" width="300" height="160" rx="8" fill="#F0F7FF"/>
  <rect x="790" y="765" width="200" height="12" rx="4" fill="#333"/>
  <rect x="790" y="785" width="160" height="8" rx="4" fill="#888"/>
  <rect x="790" y="810" width="120" height="28" rx="14" fill="#0057B8"/>
  <defs><linearGradient id="mayoGrad" x1="0" y1="0" x2="1" y2="1"><stop offset="0%" stop-color="#0057B8" stop-opacity="0.06"/><stop offset="100%" stop-color="#F8FAFB" stop-opacity="0"/></linearGradient></defs>
</svg>
