<svg width="1200" height="900" viewBox="0 0 1200 900" fill="none" xmlns="http://www.w3.org/2000/svg">
  <rect width="1200" height="900" fill="#0A0A0A"/>
  <rect width="1200" height="44" fill="#1A1A1A"/>
  <rect x="0" y="44" width="1200" height="1" fill="#2A2A2A"/>
  <circle cx="20" cy="22" r="5" fill="#FF5F56"/>
  <circle cx="38" cy="22" r="5" fill="#FFBD2E"/>
  <circle cx="56" cy="22" r="5" fill="#27C93F"/>
  <rect x="350" y="14" width="500" height="16" rx="8" fill="#2A2A2A"/>
  <!-- Planet Fitness style - dark with yellow/purple -->
  <rect x="0" y="45" width="1200" height="64" fill="#111"/>
  <rect x="60" y="68" width="80" height="14" rx="4" fill="#ECC94B"/>
  <rect x="750" y="68" width="60" height="10" rx="4" fill="#555"/>
  <rect x="825" y="68" width="60" height="10" rx="4" fill="#555"/>
  <rect x="900" y="68" width="60" height="10" rx="4" fill="#555"/>
  <rect x="1000" y="63" width="130" height="28" rx="14" fill="#ECC94B"/>
  <!-- Hero -->
  <rect x="0" y="109" width="1200" height="440" fill="url(#pfGrad)"/>
  <rect x="100" y="180" width="500" height="60" rx="6" fill="#ECC94B" opacity="0.1"/>
  <rect x="110" y="192" width="380" height="14" rx="4" fill="#ECC94B" opacity="0.4"/>
  <rect x="110" y="216" width="280" height="14" rx="4" fill="#ECC94B" opacity="0.2"/>
  <rect x="100" y="270" width="340" height="14" rx="4" fill="#FFF" opacity="0.5"/>
  <rect x="100" y="295" width="280" height="14" rx="4" fill="#FFF" opacity="0.3"/>
  <rect x="100" y="340" width="180" height="52" rx="26" fill="#ECC94B"/>
  <rect x="300" y="340" width="150" height="52" rx="26" fill="#FFF" opacity="0.1" stroke="#ECC94B" stroke-width="1"/>
  <!-- Features -->
  <rect x="100" y="430" width="220" height="80" rx="10" fill="#FFF" opacity="0.05"/>
  <rect x="120" y="445" width="30" height="8" rx="4" fill="#ECC94B" opacity="0.6"/>
  <rect x="120" y="462" width="180" height="8" rx="4" fill="#FFF" opacity="0.3"/>
  <rect x="340" y="430" width="220" height="80" rx="10" fill="#FFF" opacity="0.05"/>
  <rect x="360" y="445" width="30" height="8" rx="4" fill="#ECC94B" opacity="0.6"/>
  <rect x="360" y="462" width="180" height="8" rx="4" fill="#FFF" opacity="0.3"/>
  <rect x="580" y="430" width="220" height="80" rx="10" fill="#FFF" opacity="0.05"/>
  <rect x="600" y="445" width="30" height="8" rx="4" fill="#ECC94B" opacity="0.6"/>
  <rect x="600" y="462" width="180" height="8" rx="4" fill="#FFF" opacity="0.3"/>
  <!-- Classes section -->
  <rect x="0" y="549" width="1200" height="351" fill="#0A0A0A"/>
  <rect x="480" y="580" width="240" height="16" rx="4" fill="#ECC94B" opacity="0.1"/>
  <rect x="60" y="620" width="250" height="250" rx="12" fill="#111" stroke="#2A2A2A" stroke-width="1"/>
  <rect x="80" y="640" width="210" height="140" rx="8" fill="#1A1A1A"/>
  <rect x="80" y="795" width="210" height="10" rx="4" fill="#ECC94B" opacity="0.4"/>
  <rect x="80" y="815" width="160" height="8" rx="4" fill="#444"/>
  <rect x="330" y="620" width="250" height="250" rx="12" fill="#111" stroke="#2A2A2A" stroke-width="1"/>
  <rect x="350" y="640" width="210" height="140" rx="8" fill="#1A1A1A"/>
  <rect x="350" y="795" width="210" height="10" rx="4" fill="#ECC94B" opacity="0.4"/>
  <rect x="350" y="815" width="160" height="8" rx="4" fill="#444"/>
  <rect x="600" y="620" width="250" height="250" rx="12" fill="#111" stroke="#2A2A2A" stroke-width="1"/>
  <rect x="620" y="640" width="210" height="140" rx="8" fill="#1A1A1A"/>
  <rect x="620" y="795" width="210" height="10" rx="4" fill="#ECC94B" opacity="0.4"/>
  <rect x="620" y="815" width="160" height="8" rx="4" fill="#444"/>
  <rect x="870" y="620" width="250" height="250" rx="12" fill="#111" stroke="#2A2A2A" stroke-width="1"/>
  <rect x="890" y="640" width="210" height="140" rx="8" fill="#1A1A1A"/>
  <rect x="890" y="795" width="210" height="10" rx="4" fill="#ECC94B" opacity="0.4"/>
  <rect x="890" y="815" width="160" height="8" rx="4" fill="#444"/>
  <defs><linearGradient id="pfGrad" x1="0" y1="0" x2="1" y2="1"><stop offset="0%" stop-color="#4A1A6B" stop-opacity="0.4"/><stop offset="100%" stop-color="#0A0A0A" stop-opacity="0"/></linearGradient></defs>
</svg>
