<svg width="800" height="600" viewBox="0 0 800 600" fill="none" xmlns="http://www.w3.org/2000/svg">
  <rect width="800" height="600" fill="#1a1a1a"/>
  <rect x="0" y="0" width="800" height="40" fill="#222"/>
  <circle cx="20" cy="20" r="5" fill="#FF5F56"/>
  <circle cx="38" cy="20" r="5" fill="#FFBD2E"/>
  <circle cx="56" cy="20" r="5" fill="#27C93F"/>
  <rect x="60" y="70" width="200" height="20" rx="4" fill="#333"/>
  <rect x="500" y="70" width="240" height="20" rx="4" fill="#333"/>
  <rect x="60" y="110" width="680" height="1" fill="#2a2a2a"/>
  <rect x="60" y="130" width="320" height="200" rx="8" fill="#222"/>
  <rect x="60" y="345" width="320" height="10" rx="4" fill="#333"/>
  <rect x="60" y="365" width="200" height="8" rx="4" fill="#2a2a2a"/>
  <rect x="60" y="385" width="150" height="8" rx="4" fill="#2a2a2a"/>
  <rect x="400" y="130" width="340" height="200" rx="8" fill="#222"/>
  <rect x="400" y="345" width="340" height="10" rx="4" fill="#333"/>
  <rect x="400" y="365" width="250" height="8" rx="4" fill="#2a2a2a"/>
  <rect x="400" y="385" width="180" height="8" rx="4" fill="#2a2a2a"/>
  <circle cx="740" cy="230" r="20" fill="#00E5FF" opacity="0.15"/>
  <circle cx="740" cy="230" r="10" fill="#00E5FF" opacity="0.3"/>
</svg>
