<svg width="1200" height="900" viewBox="0 0 1200 900" fill="none" xmlns="http://www.w3.org/2000/svg">
  <!-- Dental Clinic Website Mockup -->
  <rect width="1200" height="900" fill="#0A0A0A"/>
  <rect width="1200" height="44" fill="#1A1A1A"/>
  <rect x="0" y="44" width="1200" height="1" fill="#2A2A2A"/>
  <circle cx="20" cy="22" r="5" fill="#FF5F56"/>
  <circle cx="38" cy="22" r="5" fill="#FFBD2E"/>
  <circle cx="56" cy="22" r="5" fill="#27C93F"/>
  <rect x="350" y="14" width="500" height="16" rx="8" fill="#2A2A2A"/>
  <!-- Clean White/Blue Theme -->
  <rect x="0" y="45" width="1200" height="72" fill="#F8FAFB"/>
  <rect x="60" y="68" width="80" height="14" rx="4" fill="#1A8FCC"/>
  <rect x="680" y="68" width="60" height="10" rx="4" fill="#444"/>
  <rect x="755" y="68" width="60" height="10" rx="4" fill="#444"/>
  <rect x="830" y="68" width="60" height="10" rx="4" fill="#444"/>
  <rect x="905" y="68" width="60" height="10" rx="4" fill="#444"/>
  <rect x="1000" y="63" width="130" height="28" rx="14" fill="#1A8FCC"/>
  <!-- Hero -->
  <rect x="0" y="117" width="1200" height="380" fill="url(#clinicGrad)"/>
  <rect x="100" y="180" width="180" height="14" rx="4" fill="#1A8FCC" opacity="0.7"/>
  <rect x="100" y="210" width="420" height="100" rx="6" fill="#1A8FCC" opacity="0.06"/>
  <rect x="110" y="222" width="380" height="14" rx="4" fill="#1A8FCC" opacity="0.4"/>
  <rect x="110" y="244" width="340" height="14" rx="4" fill="#1A8FCC" opacity="0.2"/>
  <rect x="110" y="270" width="280" height="12" rx="4" fill="#1A8FCC" opacity="0.15"/>
  <rect x="100" y="320" width="160" height="44" rx="22" fill="#1A8FCC"/>
  <rect x="280" y="320" width="140" height="44" rx="22" fill="#FFF" stroke="#1A8FCC" stroke-width="1"/>
  <!-- Hero Stats -->
  <rect x="100" y="400" width="100" height="40" rx="8" fill="#FFF" stroke="#EEE" stroke-width="1"/>
  <rect x="115" y="408" width="30" height="8" rx="4" fill="#1A8FCC" opacity="0.5"/>
  <rect x="115" y="422" width="70" height="6" rx="4" fill="#999"/>
  <rect x="220" y="400" width="100" height="40" rx="8" fill="#FFF" stroke="#EEE" stroke-width="1"/>
  <rect x="235" y="408" width="30" height="8" rx="4" fill="#1A8FCC" opacity="0.5"/>
  <rect x="235" y="422" width="70" height="6" rx="4" fill="#999"/>
  <!-- Hero Image -->
  <rect x="620" y="150" width="500" height="320" rx="12" fill="#E8F4FD"/>
  <rect x="660" y="190" width="420" height="240" rx="8" fill="#D0EAF8"/>
  <circle cx="870" cy="310" r="70" fill="#1A8FCC" opacity="0.1"/>
  <rect x="770" y="280" width="200" height="14" rx="4" fill="#1A8FCC" opacity="0.3"/>
  <rect x="810" y="302" width="120" height="10" rx="4" fill="#1A8FCC" opacity="0.15"/>
  <!-- Services Section -->
  <rect x="0" y="497" width="1200" height="403" fill="#F8FAFB"/>
  <rect x="480" y="530" width="240" height="16" rx="4" fill="#1A8FCC" opacity="0.12"/>
  <rect x="530" y="556" width="140" height="12" rx="4" fill="#999"/>
  <!-- Service Cards -->
  <rect x="60" y="590" width="250" height="180" rx="12" fill="#FFF" stroke="#EEE" stroke-width="1"/>
  <circle cx="185" cy="630" r="24" fill="#E8F4FD"/>
  <circle cx="185" cy="630" r="10" fill="#1A8FCC" opacity="0.4"/>
  <rect x="100" y="670" width="170" height="12" rx="4" fill="#1A8FCC" opacity="0.3"/>
  <rect x="100" y="690" width="140" height="10" rx="4" fill="#999"/>
  <rect x="100" y="708" width="160" height="10" rx="4" fill="#999"/>
  <rect x="100" y="740" width="100" height="24" rx="12" fill="#1A8FCC" opacity="0.9"/>
  <rect x="330" y="590" width="250" height="180" rx="12" fill="#FFF" stroke="#EEE" stroke-width="1"/>
  <circle cx="455" cy="630" r="24" fill="#E8F4FD"/>
  <rect x="370" y="670" width="170" height="12" rx="4" fill="#1A8FCC" opacity="0.3"/>
  <rect x="370" y="690" width="140" height="10" rx="4" fill="#999"/>
  <rect x="370" y="708" width="160" height="10" rx="4" fill="#999"/>
  <rect x="370" y="740" width="100" height="24" rx="12" fill="#1A8FCC" opacity="0.9"/>
  <rect x="600" y="590" width="250" height="180" rx="12" fill="#FFF" stroke="#EEE" stroke-width="1"/>
  <circle cx="725" cy="630" r="24" fill="#E8F4FD"/>
  <rect x="640" y="670" width="170" height="12" rx="4" fill="#1A8FCC" opacity="0.3"/>
  <rect x="640" y="690" width="140" height="10" rx="4" fill="#999"/>
  <rect x="640" y="708" width="160" height="10" rx="4" fill="#999"/>
  <rect x="640" y="740" width="100" height="24" rx="12" fill="#1A8FCC" opacity="0.9"/>
  <rect x="870" y="590" width="250" height="180" rx="12" fill="#FFF" stroke="#EEE" stroke-width="1"/>
  <circle cx="995" cy="630" r="24" fill="#E8F4FD"/>
  <rect x="910" y="670" width="170" height="12" rx="4" fill="#1A8FCC" opacity="0.3"/>
  <rect x="910" y="690" width="140" height="10" rx="4" fill="#999"/>
  <rect x="910" y="708" width="160" height="10" rx="4" fill="#999"/>
  <rect x="910" y="740" width="100" height="24" rx="12" fill="#1A8FCC" opacity="0.9"/>
  <!-- Footer -->
  <rect x="0" y="820" width="1200" height="80" fill="#F0F4F5"/>
  <rect x="60" y="850" width="100" height="10" rx="4" fill="#999"/>
  <rect x="1040" y="850" width="100" height="10" rx="4" fill="#999"/>
  <defs><linearGradient id="clinicGrad" x1="0" y1="0" x2="1" y2="1"><stop offset="0%" stop-color="#E8F4FD"/><stop offset="100%" stop-color="#F8FAFB"/></linearGradient></defs>
</svg>
