<svg width="1200" height="900" viewBox="0 0 1200 900" fill="none" xmlns="http://www.w3.org/2000/svg">
  <!-- Restaurant Website Mockup -->
  <rect width="1200" height="900" fill="#0A0A0A"/>
  <!-- Browser Chrome -->
  <rect width="1200" height="44" fill="#1A1A1A"/>
  <rect x="0" y="44" width="1200" height="1" fill="#2A2A2A"/>
  <circle cx="20" cy="22" r="5" fill="#FF5F56"/>
  <circle cx="38" cy="22" r="5" fill="#FFBD2E"/>
  <circle cx="56" cy="22" r="5" fill="#27C93F"/>
  <rect x="350" y="14" width="500" height="16" rx="8" fill="#2A2A2A"/>
  <!-- Navbar -->
  <rect x="0" y="45" width="1200" height="64" fill="#111"/>
  <rect x="60" y="68" width="60" height="18" rx="4" fill="#D4A574"/>
  <rect x="800" y="68" width="60" height="18" rx="4" fill="#333"/>
  <rect x="875" y="68" width="60" height="18" rx="4" fill="#333"/>
  <rect x="950" y="68" width="60" height="18" rx="4" fill="#333"/>
  <rect x="1025" y="63" width="100" height="28" rx="14" fill="#D4A574"/>
  <!-- Hero Section -->
  <rect x="0" y="109" width="1200" height="420" fill="#151515"/>
  <rect x="0" y="109" width="1200" height="420" fill="url(#heroGrad)" opacity="0.5"/>
  <rect x="100" y="180" width="200" height="16" rx="4" fill="#D4A574" opacity="0.8"/>
  <rect x="100" y="210" width="500" height="48" rx="6" fill="#D4A574" opacity="0.15"/>
  <rect x="100" y="270" width="380" height="14" rx="4" fill="#333"/>
  <rect x="100" y="292" width="320" height="14" rx="4" fill="#2A2A2A"/>
  <rect x="100" y="325" width="160" height="44" rx="22" fill="#D4A574"/>
  <rect x="280" y="325" width="140" height="44" rx="22" fill="#333" opacity="0.5"/>
  <!-- Hero Image -->
  <rect x="620" y="160" width="480" height="320" rx="12" fill="#222"/>
  <rect x="650" y="190" width="420" height="14" rx="4" fill="#333"/>
  <rect x="650" y="212" width="300" height="14" rx="4" fill="#2A2A2A"/>
  <rect x="650" y="240" width="420" height="180" rx="8" fill="#1A1A1A"/>
  <rect x="670" y="260" width="120" height="140" rx="6" fill="#2A2A2A"/>
  <rect x="805" y="260" width="120" height="140" rx="6" fill="#2A2A2A"/>
  <rect x="940" y="260" width="110" height="140" rx="6" fill="#2A2A2A"/>
  <rect x="670" y="410" width="180" height="8" rx="4" fill="#333"/>
  <rect x="805" y="410" width="180" height="8" rx="4" fill="#333"/>
  <rect x="940" y="410" width="110" height="8" rx="4" fill="#333"/>
  <!-- Menu Section -->
  <rect x="0" y="529" width="1200" height="371" fill="#0A0A0A"/>
  <rect x="480" y="560" width="240" height="16" rx="4" fill="#D4A574" opacity="0.15"/>
  <rect x="530" y="586" width="140" height="12" rx="4" fill="#333"/>
  <!-- Menu Cards -->
  <rect x="60" y="620" width="340" height="140" rx="12" fill="#151515" stroke="#2A2A2A" stroke-width="1"/>
  <rect x="80" y="640" width="80" height="80" rx="8" fill="#2A2A2A"/>
  <rect x="180" y="645" width="150" height="14" rx="4" fill="#D4A574" opacity="0.3"/>
  <rect x="180" y="668" width="200" height="10" rx="4" fill="#2A2A2A"/>
  <rect x="180" y="688" width="100" height="10" rx="4" fill="#2A2A2A"/>
  <rect x="180" y="715" width="80" height="24" rx="12" fill="#D4A574" opacity="0.8"/>
  <rect x="430" y="620" width="340" height="140" rx="12" fill="#151515" stroke="#2A2A2A" stroke-width="1"/>
  <rect x="450" y="640" width="80" height="80" rx="8" fill="#2A2A2A"/>
  <rect x="550" y="645" width="150" height="14" rx="4" fill="#D4A574" opacity="0.3"/>
  <rect x="550" y="668" width="200" height="10" rx="4" fill="#2A2A2A"/>
  <rect x="550" y="688" width="100" height="10" rx="4" fill="#2A2A2A"/>
  <rect x="550" y="715" width="80" height="24" rx="12" fill="#D4A574" opacity="0.8"/>
  <rect x="800" y="620" width="340" height="140" rx="12" fill="#151515" stroke="#2A2A2A" stroke-width="1"/>
  <rect x="820" y="640" width="80" height="80" rx="8" fill="#2A2A2A"/>
  <rect x="920" y="645" width="150" height="14" rx="4" fill="#D4A574" opacity="0.3"/>
  <rect x="920" y="668" width="200" height="10" rx="4" fill="#2A2A2A"/>
  <rect x="920" y="688" width="100" height="10" rx="4" fill="#2A2A2A"/>
  <rect x="920" y="715" width="80" height="24" rx="12" fill="#D4A574" opacity="0.8"/>
  <!-- Footer -->
  <rect x="0" y="820" width="1200" height="80" fill="#0D0D0D"/>
  <rect x="60" y="845" width="120" height="10" rx="4" fill="#333"/>
  <rect x="1020" y="845" width="120" height="10" rx="4" fill="#333"/>
  <defs><linearGradient id="heroGrad" x1="0" y1="0" x2="1" y2="1"><stop offset="0%" stop-color="#D4A574" stop-opacity="0.1"/><stop offset="100%" stop-color="#0A0A0A" stop-opacity="0"/></linearGradient></defs>
</svg>
