<svg width="1200" height="900" viewBox="0 0 1200 900" fill="none" xmlns="http://www.w3.org/2000/svg">
  <!-- Real Estate Website Mockup -->
  <rect width="1200" height="900" fill="#0A0A0A"/>
  <rect width="1200" height="44" fill="#1A1A1A"/>
  <rect x="0" y="44" width="1200" height="1" fill="#2A2A2A"/>
  <circle cx="20" cy="22" r="5" fill="#FF5F56"/>
  <circle cx="38" cy="22" r="5" fill="#FFBD2E"/>
  <circle cx="56" cy="22" r="5" fill="#27C93F"/>
  <rect x="350" y="14" width="500" height="16" rx="8" fill="#2A2A2A"/>
  <!-- Navigation -->
  <rect x="0" y="45" width="1200" height="72" fill="#FFF"/>
  <rect x="60" y="72" width="100" height="14" rx="4" fill="#0D9488"/>
  <rect x="750" y="72" width="60" height="10" rx="4" fill="#555"/>
  <rect x="825" y="72" width="60" height="10" rx="4" fill="#555"/>
  <rect x="900" y="72" width="60" height="10" rx="4" fill="#555"/>
  <rect x="975" y="72" width="60" height="10" rx="4" fill="#555"/>
  <rect x="1050" y="67" width="100" height="28" rx="14" fill="#0D9488"/>
  <!-- Hero Search -->
  <rect x="0" y="117" width="1200" height="360" fill="url(#propGrad)"/>
  <rect x="100" y="180" width="500" height="16" rx="4" fill="#FFF" opacity="0.8"/>
  <rect x="100" y="210" width="400" height="14" rx="4" fill="#FFF" opacity="0.5"/>
  <rect x="100" y="234" width="340" height="14" rx="4" fill="#FFF" opacity="0.3"/>
  <!-- Search Bar -->
  <rect x="100" y="280" width="600" height="56" rx="28" fill="#FFF"/>
  <rect x="120" y="296" width="200" height="12" rx="4" fill="#CCC"/>
  <rect x="340" y="296" width="1" height="24" fill="#DDD"/>
  <rect x="360" y="296" width="150" height="12" rx="4" fill="#CCC"/>
  <rect x="530" y="296" width="1" height="24" fill="#DDD"/>
  <rect x="550" y="296" width="130" height="12" rx="4" fill="#CCC"/>
  <rect x="680" y="288" width="48" height="40" rx="20" fill="#0D9488"/>
  <!-- Property Cards -->
  <rect x="100" y="370" width="220" height="80" rx="10" fill="#FFF" opacity="0.9"/>
  <rect x="115" y="382" width="40" height="10" rx="4" fill="#0D9488" opacity="0.3"/>
  <rect x="115" y="398" width="100" height="8" rx="4" fill="#999"/>
  <rect x="340" y="370" width="220" height="80" rx="10" fill="#FFF" opacity="0.9"/>
  <rect x="355" y="382" width="40" height="10" rx="4" fill="#0D9488" opacity="0.3"/>
  <rect x="355" y="398" width="100" height="8" rx="4" fill="#999"/>
  <rect x="580" y="370" width="220" height="80" rx="10" fill="#FFF" opacity="0.9"/>
  <rect x="595" y="382" width="40" height="10" rx="4" fill="#0D9488" opacity="0.3"/>
  <rect x="595" y="398" width="100" height="8" rx="4" fill="#999"/>
  <!-- Hero Image -->
  <rect x="740" y="145" width="380" height="300" rx="12" fill="#CCFBF1"/>
  <rect x="770" y="175" width="320" height="240" rx="8" fill="#99F6E4"/>
  <rect x="850" y="260" width="160" height="14" rx="4" fill="#0D9488" opacity="0.3"/>
  <rect x="870" y="284" width="120" height="10" rx="4" fill="#0D9488" opacity="0.15"/>
  <!-- Property Grid -->
  <rect x="0" y="477" width="1200" height="343" fill="#FAFAFA"/>
  <rect x="480" y="510" width="240" height="16" rx="4" fill="#0D9488" opacity="0.1"/>
  <rect x="530" y="536" width="140" height="12" rx="4" fill="#999"/>
  <!-- Property Cards -->
  <rect x="60" y="570" width="260" height="220" rx="12" fill="#FFF" stroke="#EEE" stroke-width="1"/>
  <rect x="80" y="590" width="220" height="120" rx="8" fill="#F0FDFA"/>
  <rect x="80" y="720" width="220" height="10" rx="4" fill="#333"/>
  <rect x="80" y="738" width="120" height="8" rx="4" fill="#999"/>
  <rect x="80" y="755" width="80" height="8" rx="4" fill="#0D9488" opacity="0.6"/>
  <rect x="340" y="570" width="260" height="220" rx="12" fill="#FFF" stroke="#EEE" stroke-width="1"/>
  <rect x="360" y="590" width="220" height="120" rx="8" fill="#F0FDFA"/>
  <rect x="360" y="720" width="220" height="10" rx="4" fill="#333"/>
  <rect x="360" y="738" width="120" height="8" rx="4" fill="#999"/>
  <rect x="360" y="755" width="80" height="8" rx="4" fill="#0D9488" opacity="0.6"/>
  <rect x="620" y="570" width="260" height="220" rx="12" fill="#FFF" stroke="#EEE" stroke-width="1"/>
  <rect x="640" y="590" width="220" height="120" rx="8" fill="#F0FDFA"/>
  <rect x="640" y="720" width="220" height="10" rx="4" fill="#333"/>
  <rect x="640" y="738" width="120" height="8" rx="4" fill="#999"/>
  <rect x="640" y="755" width="80" height="8" rx="4" fill="#0D9488" opacity="0.6"/>
  <rect x="900" y="570" width="260" height="220" rx="12" fill="#FFF" stroke="#EEE" stroke-width="1"/>
  <rect x="920" y="590" width="220" height="120" rx="8" fill="#F0FDFA"/>
  <rect x="920" y="720" width="220" height="10" rx="4" fill="#333"/>
  <rect x="920" y="738" width="120" height="8" rx="4" fill="#999"/>
  <rect x="920" y="755" width="80" height="8" rx="4" fill="#0D9488" opacity="0.6"/>
  <defs><linearGradient id="propGrad" x1="0" y1="0" x2="1" y2="1"><stop offset="0%" stop-color="#0D9488" stop-opacity="0.06"/><stop offset="100%" stop-color="#FAFAFA" stop-opacity="0"/></linearGradient></defs>
</svg>
