<svg width="1200" height="900" viewBox="0 0 1200 900" fill="none" xmlns="http://www.w3.org/2000/svg">
  <!-- Creative Agency Website Mockup -->
  <rect width="1200" height="900" fill="#0A0A0A"/>
  <rect width="1200" height="44" fill="#1A1A1A"/>
  <rect x="0" y="44" width="1200" height="1" fill="#2A2A2A"/>
  <circle cx="20" cy="22" r="5" fill="#FF5F56"/>
  <circle cx="38" cy="22" r="5" fill="#FFBD2E"/>
  <circle cx="56" cy="22" r="5" fill="#27C93F"/>
  <rect x="350" y="14" width="500" height="16" rx="8" fill="#2A2A2A"/>
  <!-- Bold Dark Agency Theme -->
  <rect x="0" y="45" width="1200" height="72" fill="#0A0A0A"/>
  <rect x="60" y="70" width="80" height="14" rx="4" fill="#FFF"/>
  <rect x="750" y="70" width="70" height="10" rx="4" fill="#555"/>
  <rect x="835" y="70" width="70" height="10" rx="4" fill="#555"/>
  <rect x="920" y="70" width="70" height="10" rx="4" fill="#555"/>
  <rect x="1005" y="70" width="80" height="10" rx="4" fill="#555"/>
  <rect x="1100" y="65" width="50" height="28" rx="14" fill="#FFF"/>
  <!-- Hero -->
  <rect x="0" y="117" width="1200" height="460" fill="url(#agencyGrad)"/>
  <rect x="100" y="180" width="140" height="14" rx="4" fill="#FFF" opacity="0.4"/>
  <rect x="100" y="210" width="600" height="80" rx="6" fill="#FFF" opacity="0.04"/>
  <rect x="110" y="222" width="500" height="14" rx="4" fill="#FFF" opacity="0.15"/>
  <rect x="110" y="246" width="420" height="14" rx="4" fill="#FFF" opacity="0.08"/>
  <rect x="100" y="310" width="360" height="14" rx="4" fill="#555"/>
  <rect x="100" y="332" width="300" height="14" rx="4" fill="#444"/>
  <rect x="100" y="370" width="170" height="50" rx="25" fill="#FFF"/>
  <rect x="290" y="370" width="140" height="50" rx="25" fill="#FFF" opacity="0.05" stroke="#444" stroke-width="1"/>
  <!-- Stats -->
  <rect x="100" y="460" width="100" height="40" rx="8" fill="#FFF" opacity="0.03"/>
  <rect x="115" y="468" width="30" height="8" rx="4" fill="#FFF" opacity="0.3"/>
  <rect x="115" y="482" width="70" height="6" rx="4" fill="#444"/>
  <rect x="215" y="460" width="100" height="40" rx="8" fill="#FFF" opacity="0.03"/>
  <rect x="230" y="468" width="30" height="8" rx="4" fill="#FFF" opacity="0.3"/>
  <rect x="230" y="482" width="70" height="6" rx="4" fill="#444"/>
  <rect x="330" y="460" width="100" height="40" rx="8" fill="#FFF" opacity="0.03"/>
  <rect x="345" y="468" width="30" height="8" rx="4" fill="#FFF" opacity="0.3"/>
  <rect x="345" y="482" width="70" height="6" rx="4" fill="#444"/>
  <!-- Hero Showcase -->
  <rect x="620" y="150" width="520" height="400" rx="12" fill="#111" stroke="#2A2A2A" stroke-width="1"/>
  <rect x="640" y="170" width="480" height="360" rx="8" fill="#151515"/>
  <rect x="660" y="190" width="440" height="1" fill="#2A2A2A"/>
  <rect x="660" y="210" width="80" height="60" rx="6" fill="#333"/>
  <rect x="750" y="210" width="80" height="60" rx="6" fill="#333"/>
  <rect x="840" y="210" width="80" height="60" rx="6" fill="#333"/>
  <rect x="930" y="210" width="80" height="60" rx="6" fill="#333"/>
  <rect x="660" y="285" width="440" height="1" fill="#2A2A2A"/>
  <rect x="660" y="300" width="200" height="14" rx="4" fill="#FFF" opacity="0.05"/>
  <rect x="660" y="325" width="440" height="120" rx="8" fill="#1A1A1A"/>
  <rect x="680" y="340" width="120" height="80" rx="6" fill="#222"/>
  <rect x="815" y="340" width="120" height="80" rx="6" fill="#222"/>
  <rect x="950" y="340" width="130" height="80" rx="6" fill="#222"/>
  <rect x="680" y="430" width="120" height="8" rx="4" fill="#444"/>
  <rect x="815" y="430" width="120" height="8" rx="4" fill="#444"/>
  <rect x="950" y="430" width="130" height="8" rx="4" fill="#444"/>
  <!-- Work Section -->
  <rect x="0" y="577" width="1200" height="243" fill="#0A0A0A"/>
  <rect x="480" y="610" width="240" height="16" rx="4" fill="#FFF" opacity="0.04"/>
  <rect x="530" y="636" width="140" height="12" rx="4" fill="#444"/>
  <rect x="60" y="670" width="250" height="120" rx="8" fill="#111" stroke="#2A2A2A" stroke-width="1"/>
  <rect x="80" y="690" width="210" height="50" rx="6" fill="#1A1A1A"/>
  <rect x="80" y="752" width="210" height="10" rx="4" fill="#444"/>
  <rect x="80" y="770" width="160" height="8" rx="4" fill="#333"/>
  <rect x="330" y="670" width="250" height="120" rx="8" fill="#111" stroke="#2A2A2A" stroke-width="1"/>
  <rect x="350" y="690" width="210" height="50" rx="6" fill="#1A1A1A"/>
  <rect x="350" y="752" width="210" height="10" rx="4" fill="#444"/>
  <rect x="350" y="770" width="160" height="8" rx="4" fill="#333"/>
  <rect x="600" y="670" width="250" height="120" rx="8" fill="#111" stroke="#2A2A2A" stroke-width="1"/>
  <rect x="620" y="690" width="210" height="50" rx="6" fill="#1A1A1A"/>
  <rect x="620" y="752" width="210" height="10" rx="4" fill="#444"/>
  <rect x="620" y="770" width="160" height="8" rx="4" fill="#333"/>
  <rect x="870" y="670" width="250" height="120" rx="8" fill="#111" stroke="#2A2A2A" stroke-width="1"/>
  <rect x="890" y="690" width="210" height="50" rx="6" fill="#1A1A1A"/>
  <rect x="890" y="752" width="210" height="10" rx="4" fill="#444"/>
  <rect x="890" y="770" width="160" height="8" rx="4" fill="#333"/>
  <defs><linearGradient id="agencyGrad" x1="0" y1="0" x2="1" y2="1"><stop offset="0%" stop-color="#FFF" stop-opacity="0.03"/><stop offset="100%" stop-color="#0A0A0A" stop-opacity="0"/></linearGradient></defs>
</svg>
