<svg width="1200" height="900" viewBox="0 0 1200 900" fill="none" xmlns="http://www.w3.org/2000/svg">
  <!-- E-Commerce Store Mockup -->
  <rect width="1200" height="900" fill="#0A0A0A"/>
  <rect width="1200" height="44" fill="#1A1A1A"/>
  <rect x="0" y="44" width="1200" height="1" fill="#2A2A2A"/>
  <circle cx="20" cy="22" r="5" fill="#FF5F56"/>
  <circle cx="38" cy="22" r="5" fill="#FFBD2E"/>
  <circle cx="56" cy="22" r="5" fill="#27C93F"/>
  <rect x="350" y="14" width="500" height="16" rx="8" fill="#2A2A2A"/>
  <!-- E-Commerce Header -->
  <rect x="0" y="45" width="1200" height="100" fill="#FFF"/>
  <rect x="60" y="70" width="100" height="14" rx="4" fill="#111"/>
  <rect x="300" y="70" width="400" height="36" rx="18" fill="#F5F5F5"/>
  <rect x="750" y="70" width="50" height="14" rx="4" fill="#666"/>
  <rect x="815" y="70" width="50" height="14" rx="4" fill="#666"/>
  <rect x="880" y="70" width="50" height="14" rx="4" fill="#666"/>
  <rect x="950" y="65" width="24" height="24" rx="6" fill="#F5F5F5"/>
  <rect x="1000" y="65" width="24" height="24" rx="6" fill="#F5F5F5"/>
  <rect x="1070" y="65" width="80" height="28" rx="14" fill="#111"/>
  <!-- Promo Banner -->
  <rect x="0" y="145" width="1200" height="40" fill="#111"/>
  <rect x="450" y="157" width="300" height="10" rx="4" fill="#555"/>
  <!-- Featured Section -->
  <rect x="0" y="185" width="1200" height="300" fill="#FAFAFA"/>
  <rect x="60" y="220" width="600" height="180" rx="12" fill="#FFF" stroke="#EEE" stroke-width="1"/>
  <rect x="80" y="240" width="240" height="140" rx="8" fill="#F5F5F5"/>
  <rect x="340" y="245" width="280" height="14" rx="4" fill="#111" opacity="0.04"/>
  <rect x="340" y="270" width="240" height="10" rx="4" fill="#111" opacity="0.03"/>
  <rect x="340" y="295" width="200" height="10" rx="4" fill="#111" opacity="0.02"/>
  <rect x="340" y="320" width="80" height="24" rx="12" fill="#FF4444" opacity="0.1"/>
  <rect x="340" y="355" width="100" height="30" rx="15" fill="#111"/>
  <rect x="680" y="220" width="200" height="200" rx="10" fill="#FFF" stroke="#EEE" stroke-width="1"/>
  <rect x="700" y="240" width="160" height="120" rx="6" fill="#F5F5F5"/>
  <rect x="700" y="370" width="160" height="10" rx="4" fill="#333"/>
  <rect x="700" y="385" width="100" height="8" rx="4" fill="#999"/>
  <rect x="700" y="400" width="60" height="8" rx="4" fill="#111"/>
  <rect x="900" y="220" width="200" height="200" rx="10" fill="#FFF" stroke="#EEE" stroke-width="1"/>
  <rect x="920" y="240" width="160" height="120" rx="6" fill="#F5F5F5"/>
  <rect x="920" y="370" width="160" height="10" rx="4" fill="#333"/>
  <rect x="920" y="385" width="100" height="8" rx="4" fill="#999"/>
  <rect x="920" y="400" width="60" height="8" rx="4" fill="#111"/>
  <!-- Category row -->
  <rect x="60" y="510" width="80" height="30" rx="15" fill="#FFF" stroke="#DDD" stroke-width="1"/>
  <rect x="155" y="510" width="80" height="30" rx="15" fill="#FFF" stroke="#DDD" stroke-width="1"/>
  <rect x="250" y="510" width="80" height="30" rx="15" fill="#FFF" stroke="#DDD" stroke-width="1"/>
  <rect x="345" y="510" width="80" height="30" rx="15" fill="#FFF" stroke="#DDD" stroke-width="1"/>
  <!-- Product Grid -->
  <rect x="60" y="560" width="250" height="220" rx="10" fill="#FFF" stroke="#EEE" stroke-width="1"/>
  <rect x="80" y="580" width="210" height="130" rx="6" fill="#F5F5F5"/>
  <rect x="80" y="720" width="210" height="10" rx="4" fill="#333"/>
  <rect x="80" y="738" width="140" height="8" rx="4" fill="#999"/>
  <rect x="80" y="755" width="60" height="8" rx="4" fill="#111"/>
  <rect x="330" y="560" width="250" height="220" rx="10" fill="#FFF" stroke="#EEE" stroke-width="1"/>
  <rect x="350" y="580" width="210" height="130" rx="6" fill="#F5F5F5"/>
  <rect x="350" y="720" width="210" height="10" rx="4" fill="#333"/>
  <rect x="350" y="738" width="140" height="8" rx="4" fill="#999"/>
  <rect x="350" y="755" width="60" height="8" rx="4" fill="#111"/>
  <rect x="600" y="560" width="250" height="220" rx="10" fill="#FFF" stroke="#EEE" stroke-width="1"/>
  <rect x="620" y="580" width="210" height="130" rx="6" fill="#F5F5F5"/>
  <rect x="620" y="720" width="210" height="10" rx="4" fill="#333"/>
  <rect x="620" y="738" width="140" height="8" rx="4" fill="#999"/>
  <rect x="620" y="755" width="60" height="8" rx="4" fill="#111"/>
  <rect x="870" y="560" width="250" height="220" rx="10" fill="#FFF" stroke="#EEE" stroke-width="1"/>
  <rect x="890" y="580" width="210" height="130" rx="6" fill="#F5F5F5"/>
  <rect x="890" y="720" width="210" height="10" rx="4" fill="#333"/>
  <rect x="890" y="738" width="140" height="8" rx="4" fill="#999"/>
  <rect x="890" y="755" width="60" height="8" rx="4" fill="#111"/>
  <!-- Footer -->
  <rect x="0" y="810" width="1200" height="90" fill="#111"/>
  <rect x="60" y="840" width="100" height="10" rx="4" fill="#555"/>
  <rect x="1040" y="840" width="100" height="10" rx="4" fill="#555"/>
</svg>
