<svg width="800" height="600" viewBox="0 0 800 600" fill="none" xmlns="http://www.w3.org/2000/svg">
  <rect width="800" height="600" fill="#1a1a1a"/>
  <rect x="0" y="0" width="800" height="40" fill="#222"/>
  <circle cx="20" cy="20" r="5" fill="#FF5F56"/>
  <circle cx="38" cy="20" r="5" fill="#FFBD2E"/>
  <circle cx="56" cy="20" r="5" fill="#27C93F"/>
  <rect x="60" y="70" width="120" height="40" rx="6" fill="#333"/>
  <rect x="200" y="70" width="80" height="40" rx="6" fill="#333"/>
  <rect x="300" y="70" width="80" height="40" rx="6" fill="#333"/>
  <rect x="400" y="70" width="80" height="40" rx="6" fill="#00E5FF" opacity="0.2"/>
  <rect x="60" y="130" width="680" height="380" rx="12" fill="#222"/>
  <rect x="90" y="160" width="300" height="30" rx="6" fill="#333"/>
  <rect x="90" y="200" width="620" height="10" rx="4" fill="#2a2a2a"/>
  <rect x="90" y="220" width="500" height="10" rx="4" fill="#2a2a2a"/>
  <rect x="90" y="250" width="620" height="200" rx="8" fill="#1a1a1a"/>
  <rect x="110" y="270" width="180" height="120" rx="6" fill="#222"/>
  <rect x="310" y="270" width="180" height="120" rx="6" fill="#222"/>
  <rect x="510" y="270" width="180" height="120" rx="6" fill="#222"/>
  <rect x="110" y="405" width="180" height="8" rx="4" fill="#333"/>
  <rect x="310" y="405" width="180" height="8" rx="4" fill="#333"/>
  <rect x="510" y="405" width="180" height="8" rx="4" fill="#333"/>
  <rect x="60" y="530" width="140" height="14" rx="4" fill="#333"/>
  <rect x="210" y="530" width="200" height="14" rx="4" fill="#333"/>
</svg>
