<svg width="1200" height="900" viewBox="0 0 1200 900" fill="none" xmlns="http://www.w3.org/2000/svg">
  <!-- SaaS Website Mockup -->
  <rect width="1200" height="900" fill="#0A0A0A"/>
  <rect width="1200" height="44" fill="#1A1A1A"/>
  <rect x="0" y="44" width="1200" height="1" fill="#2A2A2A"/>
  <circle cx="20" cy="22" r="5" fill="#FF5F56"/>
  <circle cx="38" cy="22" r="5" fill="#FFBD2E"/>
  <circle cx="56" cy="22" r="5" fill="#27C93F"/>
  <rect x="350" y="14" width="500" height="16" rx="8" fill="#2A2A2A"/>
  <!-- Dark SaaS Theme -->
  <rect x="0" y="45" width="1200" height="64" fill="#0D0D0D"/>
  <rect x="60" y="67" width="60" height="14" rx="4" fill="#6366F1"/>
  <rect x="750" y="67" width="60" height="10" rx="4" fill="#555"/>
  <rect x="825" y="67" width="60" height="10" rx="4" fill="#555"/>
  <rect x="900" y="67" width="60" height="10" rx="4" fill="#555"/>
  <rect x="975" y="67" width="80" height="10" rx="4" fill="#555"/>
  <rect x="1070" y="62" width="80" height="28" rx="14" fill="#6366F1"/>
  <!-- Hero with Gradient -->
  <rect x="0" y="109" width="1200" height="400" fill="url(#saasGrad)"/>
  <rect x="100" y="170" width="500" height="16" rx="4" fill="#6366F1" opacity="0.6"/>
  <rect x="100" y="200" width="460" height="60" rx="6" fill="#6366F1" opacity="0.06"/>
  <rect x="110" y="212" width="420" height="14" rx="4" fill="#6366F1" opacity="0.3"/>
  <rect x="110" y="236" width="380" height="14" rx="4" fill="#6366F1" opacity="0.15"/>
  <rect x="100" y="280" width="340" height="14" rx="4" fill="#555"/>
  <rect x="100" y="302" width="280" height="14" rx="4" fill="#444"/>
  <rect x="100" y="340" width="170" height="48" rx="24" fill="#6366F1"/>
  <rect x="290" y="340" width="150" height="48" rx="24" fill="#FFF" stroke="#6366F1" stroke-width="1"/>
  <!-- Dashboard Preview -->
  <rect x="600" y="145" width="530" height="330" rx="12" fill="#151515" stroke="#2A2A2A" stroke-width="1"/>
  <rect x="620" y="165" width="490" height="290" rx="8" fill="#0D0D0D"/>
  <!-- Dashboard UI Elements -->
  <rect x="640" y="185" width="140" height="14" rx="4" fill="#6366F1" opacity="0.4"/>
  <rect x="640" y="210" width="450" height="1" fill="#2A2A2A"/>
  <rect x="640" y="225" width="180" height="60" rx="6" fill="#6366F1" opacity="0.08"/>
  <rect x="655" y="235" width="80" height="10" rx="4" fill="#6366F1" opacity="0.3"/>
  <rect x="655" y="252" width="120" height="8" rx="4" fill="#6366F1" opacity="0.12"/>
  <rect x="840" y="225" width="100" height="60" rx="6" fill="#6366F1" opacity="0.08"/>
  <rect x="855" y="235" width="40" height="10" rx="4" fill="#6366F1" opacity="0.3"/>
  <rect x="855" y="252" width="70" height="8" rx="4" fill="#6366F1" opacity="0.12"/>
  <rect x="960" y="225" width="130" height="60" rx="6" fill="#6366F1" opacity="0.08"/>
  <rect x="975" y="235" width="60" height="10" rx="4" fill="#6366F1" opacity="0.3"/>
  <rect x="975" y="252" width="90" height="8" rx="4" fill="#6366F1" opacity="0.12"/>
  <!-- Chart -->
  <rect x="640" y="300" width="250" height="130" rx="8" fill="#6366F1" opacity="0.04"/>
  <rect x="655" y="320" width="220" height="90" rx="6" fill="#6366F1" opacity="0.06"/>
  <rect x="910" y="300" width="180" height="130" rx="8" fill="#6366F1" opacity="0.04"/>
  <rect x="925" y="320" width="150" height="40" rx="4" fill="#6366F1" opacity="0.06"/>
  <rect x="925" y="370" width="150" height="10" rx="4" fill="#6366F1" opacity="0.08"/>
  <rect x="925" y="388" width="120" height="8" rx="4" fill="#6366F1" opacity="0.05"/>
  <!-- Features Section -->
  <rect x="0" y="509" width="1200" height="311" fill="#0A0A0A"/>
  <rect x="480" y="540" width="240" height="16" rx="4" fill="#6366F1" opacity="0.12"/>
  <rect x="530" y="566" width="140" height="12" rx="4" fill="#555"/>
  <rect x="60" y="600" width="340" height="180" rx="12" fill="#111" stroke="#2A2A2A" stroke-width="1"/>
  <rect x="80" y="620" width="40" height="40" rx="8" fill="#6366F1" opacity="0.1"/>
  <rect x="80" y="675" width="200" height="14" rx="4" fill="#6366F1" opacity="0.3"/>
  <rect x="80" y="698" width="280" height="10" rx="4" fill="#444"/>
  <rect x="80" y="716" width="240" height="10" rx="4" fill="#444"/>
  <rect x="80" y="745" width="120" height="24" rx="12" fill="#6366F1" opacity="0.8"/>
  <rect x="430" y="600" width="340" height="180" rx="12" fill="#111" stroke="#2A2A2A" stroke-width="1"/>
  <rect x="450" y="620" width="40" height="40" rx="8" fill="#6366F1" opacity="0.1"/>
  <rect x="450" y="675" width="200" height="14" rx="4" fill="#6366F1" opacity="0.3"/>
  <rect x="450" y="698" width="280" height="10" rx="4" fill="#444"/>
  <rect x="450" y="716" width="240" height="10" rx="4" fill="#444"/>
  <rect x="450" y="745" width="120" height="24" rx="12" fill="#6366F1" opacity="0.8"/>
  <rect x="800" y="600" width="340" height="180" rx="12" fill="#111" stroke="#2A2A2A" stroke-width="1"/>
  <rect x="820" y="620" width="40" height="40" rx="8" fill="#6366F1" opacity="0.1"/>
  <rect x="820" y="675" width="200" height="14" rx="4" fill="#6366F1" opacity="0.3"/>
  <rect x="820" y="698" width="280" height="10" rx="4" fill="#444"/>
  <rect x="820" y="716" width="240" height="10" rx="4" fill="#444"/>
  <rect x="820" y="745" width="120" height="24" rx="12" fill="#6366F1" opacity="0.8"/>
  <defs><linearGradient id="saasGrad" x1="0" y1="0" x2="1" y2="1"><stop offset="0%" stop-color="#6366F1" stop-opacity="0.06"/><stop offset="100%" stop-color="#0A0A0A" stop-opacity="0"/></linearGradient></defs>
</svg>
