<svg width="800" height="600" viewBox="0 0 800 600" fill="none" xmlns="http://www.w3.org/2000/svg">
  <rect width="800" height="600" fill="#1a1a1a"/>
  <rect x="0" y="0" width="800" height="40" fill="#222"/>
  <circle cx="20" cy="20" r="5" fill="#FF5F56"/>
  <circle cx="38" cy="20" r="5" fill="#FFBD2E"/>
  <circle cx="56" cy="20" r="5" fill="#27C93F"/>
  <rect x="300" y="80" width="200" height="40" rx="8" fill="#333"/>
  <rect x="240" y="140" width="320" height="14" rx="4" fill="#2a2a2a"/>
  <rect x="60" y="190" width="160" height="200" rx="8" fill="#222"/>
  <rect x="240" y="190" width="160" height="200" rx="8" fill="#222"/>
  <rect x="420" y="190" width="160" height="200" rx="8" fill="#222"/>
  <rect x="600" y="190" width="140" height="200" rx="8" fill="#222"/>
  <rect x="60" y="410" width="160" height="10" rx="4" fill="#333"/>
  <rect x="240" y="410" width="160" height="10" rx="4" fill="#333"/>
  <rect x="420" y="410" width="160" height="10" rx="4" fill="#333"/>
  <rect x="600" y="410" width="140" height="10" rx="4" fill="#333"/>
</svg>
