<svg width="1200" height="900" viewBox="0 0 1200 900" fill="none" xmlns="http://www.w3.org/2000/svg">
  <!-- Portfolio Website Mockup -->
  <rect width="1200" height="900" fill="#0A0A0A"/>
  <rect width="1200" height="44" fill="#1A1A1A"/>
  <rect x="0" y="44" width="1200" height="1" fill="#2A2A2A"/>
  <circle cx="20" cy="22" r="5" fill="#FF5F56"/>
  <circle cx="38" cy="22" r="5" fill="#FFBD2E"/>
  <circle cx="56" cy="22" r="5" fill="#27C93F"/>
  <rect x="350" y="14" width="500" height="16" rx="8" fill="#2A2A2A"/>
  <!-- Clean Minimal Portfolio -->
  <rect x="0" y="45" width="1200" height="72" fill="#FFF"/>
  <rect x="60" y="68" width="40" height="14" rx="4" fill="#111"/>
  <rect x="680" y="68" width="50" height="10" rx="4" fill="#666"/>
  <rect x="745" y="68" width="50" height="10" rx="4" fill="#666"/>
  <rect x="810" y="68" width="50" height="10" rx="4" fill="#666"/>
  <rect x="875" y="68" width="60" height="10" rx="4" fill="#666"/>
  <rect x="1000" y="63" width="130" height="28" rx="14" fill="#111"/>
  <!-- Hero -->
  <rect x="0" y="117" width="1200" height="480" fill="#FAFAFA"/>
  <rect x="100" y="180" width="600" height="70" rx="6" fill="#111" opacity="0.04"/>
  <rect x="100" y="220" width="600" height="16" rx="4" fill="#111" opacity="0.03"/>
  <rect x="100" y="246" width="500" height="12" rx="4" fill="#111" opacity="0.02"/>
  <rect x="100" y="290" width="140" height="44" rx="22" fill="#111"/>
  <rect x="260" y="290" width="120" height="44" rx="22" fill="#FFF" stroke="#DDD" stroke-width="1"/>
  <rect x="100" y="370" width="400" height="180" rx="12" fill="#FFF" stroke="#EEE" stroke-width="1"/>
  <rect x="120" y="390" width="120" height="100" rx="6" fill="#F5F5F5"/>
  <rect x="120" y="500" width="120" height="10" rx="4" fill="#333"/>
  <rect x="120" y="515" width="100" height="8" rx="4" fill="#999"/>
  <rect x="260" y="390" width="120" height="100" rx="6" fill="#F5F5F5"/>
  <rect x="260" y="500" width="120" height="10" rx="4" fill="#333"/>
  <rect x="260" y="515" width="100" height="8" rx="4" fill="#999"/>
  <rect x="400" y="390" width="80" height="100" rx="6" fill="#F5F5F5"/>
  <rect x="400" y="500" width="80" height="10" rx="4" fill="#333"/>
  <rect x="400" y="515" width="80" height="8" rx="4" fill="#999"/>
  <!-- Right Side Preview -->
  <rect x="580" y="160" width="540" height="400" rx="12" fill="#FFF" stroke="#EEE" stroke-width="1"/>
  <rect x="610" y="190" width="480" height="340" rx="8" fill="#F5F5F5"/>
  <rect x="640" y="220" width="420" height="14" rx="4" fill="#DDD"/>
  <rect x="640" y="244" width="300" height="10" rx="4" fill="#EEE"/>
  <rect x="640" y="270" width="420" height="1" fill="#EEE"/>
  <rect x="640" y="290" width="180" height="130" rx="6" fill="#DDD"/>
  <rect x="835" y="290" width="120" height="130" rx="6" fill="#DDD"/>
  <rect x="970" y="290" width="90" height="130" rx="6" fill="#DDD"/>
  <rect x="640" y="435" width="420" height="8" rx="4" fill="#EEE"/>
  <rect x="640" y="453" width="300" height="8" rx="4" fill="#EEE"/>
  <!-- Work Section -->
  <rect x="0" y="597" width="1200" height="223" fill="#FFF"/>
  <rect x="480" y="630" width="240" height="16" rx="4" fill="#111" opacity="0.04"/>
  <rect x="530" y="656" width="140" height="12" rx="4" fill="#999"/>
  <!-- Work Grid -->
  <rect x="60" y="690" width="250" height="100" rx="8" fill="#F5F5F5"/>
  <rect x="330" y="690" width="250" height="100" rx="8" fill="#F5F5F5"/>
  <rect x="600" y="690" width="250" height="100" rx="8" fill="#F5F5F5"/>
  <rect x="870" y="690" width="250" height="100" rx="8" fill="#F5F5F5"/>
  <!-- Footer -->
  <rect x="0" y="820" width="1200" height="80" fill="#FAFAFA"/>
  <rect x="60" y="850" width="80" height="10" rx="4" fill="#999"/>
  <rect x="1060" y="850" width="80" height="10" rx="4" fill="#999"/>
</svg>
