<svg width="1200" height="900" viewBox="0 0 1200 900" fill="none" xmlns="http://www.w3.org/2000/svg">
  <rect width="1200" height="900" fill="#0A0A0A"/>
  <rect width="1200" height="44" fill="#1A1A1A"/>
  <rect x="0" y="44" width="1200" height="1" fill="#2A2A2A"/>
  <circle cx="20" cy="22" r="5" fill="#FF5F56"/>
  <circle cx="38" cy="22" r="5" fill="#FFBD2E"/>
  <circle cx="56" cy="22" r="5" fill="#27C93F"/>
  <rect x="350" y="14" width="500" height="16" rx="8" fill="#2A2A2A"/>
  <!-- Shopify style - green/white commerce -->
  <rect x="0" y="45" width="1200" height="72" fill="#FFF"/>
  <rect x="60" y="68" width="100" height="14" rx="4" fill="#95BF47"/>
  <rect x="750" y="68" width="70" height="10" rx="4" fill="#555"/>
  <rect x="835" y="68" width="70" height="10" rx="4" fill="#555"/>
  <rect x="920" y="68" width="70" height="10" rx="4" fill="#555"/>
  <rect x="1020" y="63" width="120" height="28" rx="14" fill="#95BF47"/>
  <!-- Hero -->
  <rect x="0" y="117" width="1200" height="380" fill="url(#shopGrad)"/>
  <rect x="100" y="180" width="300" height="18" rx="4" fill="#212326" opacity="0.9"/>
  <rect x="100" y="210" width="450" height="14" rx="4" fill="#212326" opacity="0.5"/>
  <rect x="100" y="234" width="380" height="14" rx="4" fill="#212326" opacity="0.3"/>
  <rect x="100" y="290" width="200" height="52" rx="26" fill="#212326"/>
  <rect x="320" y="290" width="180" height="52" rx="26" fill="#FFF" stroke="#DDD" stroke-width="1"/>
  <!-- Stats -->
  <rect x="100" y="380" width="120" height="50" rx="8" fill="#FFF" stroke="#DDD" stroke-width="1"/>
  <rect x="115" y="390" width="30" height="8" rx="4" fill="#95BF47" opacity="0.5"/>
  <rect x="115" y="405" width="90" height="6" rx="4" fill="#999"/>
  <rect x="235" y="380" width="120" height="50" rx="8" fill="#FFF" stroke="#DDD" stroke-width="1"/>
  <rect x="250" y="390" width="30" height="8" rx="4" fill="#95BF47" opacity="0.5"/>
  <rect x="250" y="405" width="90" height="6" rx="4" fill="#999"/>
  <rect x="370" y="380" width="120" height="50" rx="8" fill="#FFF" stroke="#DDD" stroke-width="1"/>
  <rect x="385" y="390" width="30" height="8" rx="4" fill="#95BF47" opacity="0.5"/>
  <rect x="385" y="405" width="90" height="6" rx="4" fill="#999"/>
  <!-- Products grid -->
  <rect x="0" y="497" width="1200" height="403" fill="#FFF"/>
  <rect x="60" y="530" width="340" height="340" rx="12" fill="#F7F7F7"/>
  <rect x="80" y="550" width="300" height="220" rx="8" fill="#EEE"/>
  <rect x="80" y="780" width="200" height="10" rx="4" fill="#333"/>
  <rect x="80" y="798" width="140" height="8" rx="4" fill="#888"/>
  <rect x="80" y="815" width="80" height="8" rx="4" fill="#95BF47"/>
  <rect x="415" y="530" width="340" height="340" rx="12" fill="#F7F7F7"/>
  <rect x="435" y="550" width="300" height="220" rx="8" fill="#EEE"/>
  <rect x="435" y="780" width="200" height="10" rx="4" fill="#333"/>
  <rect x="435" y="798" width="140" height="8" rx="4" fill="#888"/>
  <rect x="435" y="815" width="80" height="8" rx="4" fill="#95BF47"/>
  <rect x="770" y="530" width="340" height="340" rx="12" fill="#F7F7F7"/>
  <rect x="790" y="550" width="300" height="220" rx="8" fill="#EEE"/>
  <rect x="790" y="780" width="200" height="10" rx="4" fill="#333"/>
  <rect x="790" y="798" width="140" height="8" rx="4" fill="#888"/>
  <rect x="790" y="815" width="80" height="8" rx="4" fill="#95BF47"/>
  <defs><linearGradient id="shopGrad" x1="0" y1="0" x2="1" y2="1"><stop offset="0%" stop-color="#95BF47" stop-opacity="0.06"/><stop offset="100%" stop-color="#FFF" stop-opacity="0"/></linearGradient></defs>
</svg>
