<svg width="1200" height="900" viewBox="0 0 1200 900" fill="none" xmlns="http://www.w3.org/2000/svg">
  <rect width="1200" height="900" fill="#0A0A0A"/>
  <rect width="1200" height="44" fill="#1A1A1A"/>
  <rect x="0" y="44" width="1200" height="1" fill="#2A2A2A"/>
  <circle cx="20" cy="22" r="5" fill="#FF5F56"/>
  <circle cx="38" cy="22" r="5" fill="#FFBD2E"/>
  <circle cx="56" cy="22" r="5" fill="#27C93F"/>
  <rect x="350" y="14" width="500" height="16" rx="8" fill="#2A2A2A"/>
  <!-- Stripe style - dark gradient with purple accent -->
  <rect x="0" y="45" width="1200" height="64" fill="#0A0A0A"/>
  <rect x="60" y="68" width="60" height="14" rx="4" fill="#FFF"/>
  <rect x="800" y="68" width="70" height="10" rx="4" fill="#555"/>
  <rect x="885" y="68" width="70" height="10" rx="4" fill="#555"/>
  <rect x="970" y="68" width="70" height="10" rx="4" fill="#555"/>
  <rect x="1070" y="63" width="80" height="28" rx="14" fill="#635BFF"/>
  <!-- Hero -->
  <rect x="0" y="109" width="1200" height="440" fill="url(#stripeGrad)"/>
  <rect x="100" y="180" width="400" height="18" rx="4" fill="#FFF" opacity="0.9"/>
  <rect x="100" y="210" width="350" height="14" rx="4" fill="#FFF" opacity="0.5"/>
  <rect x="100" y="234" width="280" height="14" rx="4" fill="#FFF" opacity="0.3"/>
  <rect x="100" y="280" width="340" height="14" rx="4" fill="#635BFF" opacity="0.5"/>
  <rect x="100" y="302" width="300" height="14" rx="4" fill="#635BFF" opacity="0.3"/>
  <rect x="100" y="340" width="180" height="52" rx="26" fill="#635BFF"/>
  <rect x="300" y="340" width="160" height="52" rx="26" fill="#FFF" opacity="0.05" stroke="#635BFF" stroke-width="1"/>
  <!-- Dashboard preview -->
  <rect x="600" y="145" width="530" height="380" rx="12" fill="#151515" stroke="#2A2A2A" stroke-width="1"/>
  <rect x="620" y="165" width="490" height="340" rx="8" fill="#0D0D0D"/>
  <rect x="640" y="185" width="140" height="14" rx="4" fill="#635BFF" opacity="0.4"/>
  <rect x="640" y="210" width="450" height="1" fill="#2A2A2A"/>
  <rect x="640" y="225" width="130" height="60" rx="6" fill="#635BFF" opacity="0.06"/>
  <rect x="655" y="235" width="60" height="10" rx="4" fill="#635BFF" opacity="0.3"/>
  <rect x="655" y="252" width="90" height="8" rx="4" fill="#635BFF" opacity="0.1"/>
  <rect x="785" y="225" width="130" height="60" rx="6" fill="#635BFF" opacity="0.06"/>
  <rect x="800" y="235" width="60" height="10" rx="4" fill="#635BFF" opacity="0.3"/>
  <rect x="800" y="252" width="90" height="8" rx="4" fill="#635BFF" opacity="0.1"/>
  <rect x="930" y="225" width="130" height="60" rx="6" fill="#635BFF" opacity="0.06"/>
  <rect x="945" y="235" width="60" height="10" rx="4" fill="#635BFF" opacity="0.3"/>
  <rect x="945" y="252" width="90" height="8" rx="4" fill="#635BFF" opacity="0.1"/>
  <!-- Chart -->
  <rect x="640" y="300" width="250" height="150" rx="8" fill="#635BFF" opacity="0.03"/>
  <rect x="655" y="320" width="220" height="110" rx="6" fill="#635BFF" opacity="0.04"/>
  <rect x="910" y="300" width="180" height="150" rx="8" fill="#635BFF" opacity="0.03"/>
  <rect x="925" y="320" width="150" height="50" rx="4" fill="#635BFF" opacity="0.05"/>
  <rect x="925" y="380" width="150" height="10" rx="4" fill="#635BFF" opacity="0.06"/>
  <rect x="925" y="398" width="120" height="8" rx="4" fill="#635BFF" opacity="0.04"/>
  <!-- Features -->
  <rect x="0" y="549" width="1200" height="351" fill="#0A0A0A"/>
  <rect x="480" y="580" width="240" height="16" rx="4" fill="#635BFF" opacity="0.1"/>
  <rect x="60" y="620" width="340" height="250" rx="12" fill="#111" stroke="#2A2A2A" stroke-width="1"/>
  <rect x="80" y="640" width="40" height="40" rx="8" fill="#635BFF" opacity="0.1"/>
  <rect x="80" y="695" width="200" height="12" rx="4" fill="#635BFF" opacity="0.3"/>
  <rect x="80" y="715" width="280" height="8" rx="4" fill="#444"/>
  <rect x="80" y="730" width="240" height="8" rx="4" fill="#444"/>
  <rect x="80" y="760" width="140" height="36" rx="18" fill="#635BFF"/>
  <rect x="415" y="620" width="340" height="250" rx="12" fill="#111" stroke="#2A2A2A" stroke-width="1"/>
  <rect x="435" y="640" width="40" height="40" rx="8" fill="#635BFF" opacity="0.1"/>
  <rect x="435" y="695" width="200" height="12" rx="4" fill="#635BFF" opacity="0.3"/>
  <rect x="435" y="715" width="280" height="8" rx="4" fill="#444"/>
  <rect x="435" y="730" width="240" height="8" rx="4" fill="#444"/>
  <rect x="435" y="760" width="140" height="36" rx="18" fill="#635BFF"/>
  <rect x="770" y="620" width="340" height="250" rx="12" fill="#111" stroke="#2A2A2A" stroke-width="1"/>
  <rect x="790" y="640" width="40" height="40" rx="8" fill="#635BFF" opacity="0.1"/>
  <rect x="790" y="695" width="200" height="12" rx="4" fill="#635BFF" opacity="0.3"/>
  <rect x="790" y="715" width="280" height="8" rx="4" fill="#444"/>
  <rect x="790" y="730" width="240" height="8" rx="4" fill="#444"/>
  <rect x="790" y="760" width="140" height="36" rx="18" fill="#635BFF"/>
  <defs><linearGradient id="stripeGrad" x1="0" y1="0" x2="1" y2="1"><stop offset="0%" stop-color="#635BFF" stop-opacity="0.08"/><stop offset="100%" stop-color="#0A0A0A" stop-opacity="0"/></linearGradient></defs>
</svg>
